<svg xmlns="http://www.w3.org/2000/svg" viewBox="0 0 1200 800">
  <defs>
    <linearGradient id="g1" x1="0" y1="0" x2="1" y2="1">
      <stop offset="0" stop-color="#6ee7ff"/>
      <stop offset="1" stop-color="#8b5cf6"/>
    </linearGradient>
    <radialGradient id="glow" cx="50%" cy="30%" r="60%">
      <stop offset="0" stop-color="#ffffff" stop-opacity="0.15"/>
      <stop offset="1" stop-color="#000000" stop-opacity="0"/>
    </radialGradient>
  </defs>
  <rect width="1200" height="800" fill="#0b0c10"/>
  <circle cx="300" cy="120" r="320" fill="url(#glow)"/>
  <circle cx="1000" cy="40" r="380" fill="url(#glow)"/>
  <g transform="translate(150,150)">
    <rect x="0" y="0" width="480" height="500" rx="36" fill="#111318" stroke="url(#g1)" stroke-width="2"/>
    <rect x="28" y="60" width="424" height="52" rx="12" fill="#0f1015" stroke="#22252e"/>
    <rect x="28" y="128" width="424" height="220" rx="16" fill="#0f1015" stroke="#22252e"/>
    <rect x="28" y="364" width="200" height="40" rx="10" fill="url(#g1)"/>
    <rect x="252" y="364" width="200" height="40" rx="10" fill="none" stroke="#2a2f3a"/>
    <text x="28" y="48" fill="#e8e8ea" font-family="Inter,system-ui" font-size="20">iFocusFlow • Session</text>
  </g>
  <g transform="translate(720,230)">
    <rect x="0" y="0" width="330" height="240" rx="28" fill="#111318" stroke="url(#g1)" stroke-width="2"/>
    <rect x="22" y="48" width="286" height="120" rx="14" fill="#0f1015" stroke="#22252e"/>
    <rect x="22" y="178" width="130" height="34" rx="8" fill="url(#g1)"/>
    <rect x="178" y="178" width="130" height="34" rx="8" fill="none" stroke="#2a2f3a"/>
    <text x="22" y="36" fill="#e8e8ea" font-family="Inter,system-ui" font-size="18">iPad Layout</text>
  </g>
  <text x="150" y="720" fill="#a9acb2" font-family="Inter,system-ui" font-size="22">Replace this hero with real artwork later • 1600×900 recommended</text>
</svg>
